<svg width="64" height="40" viewBox="0 0 64 40" fill="none" xmlns="http://www.w3.org/2000/svg">
<path fill-rule="evenodd" clip-rule="evenodd" d="M19.5884 38.7694C18.9158 38.5606 18.2575 38.3091 17.6133 38.015C15.4397 37.0007 13.6766 35.455 12.3242 33.378C11.02 31.301 10.3679 28.6926 10.3679 25.553V1.49823L0.00866699 1.49824V25.553C0.00866699 28.6926 0.660753 31.301 1.96493 33.378C3.3174 35.455 5.08045 37.0007 7.25407 38.015C9.47599 39.0294 11.867 39.5366 14.427 39.5366C16.2449 39.5366 17.9654 39.2808 19.5884 38.7694ZM21.5983 4.38897C22.4867 3.55119 23.5016 2.85327 24.643 2.29523C26.865 1.18427 29.3525 0.628784 32.1058 0.628784C33.958 0.628784 35.6791 0.880186 37.269 1.38299C36.485 1.62758 35.7294 1.93166 35.0023 2.29522C32.8287 3.35788 31.1139 4.92772 29.858 7.00473C28.6022 9.08175 27.9742 11.6176 27.9742 14.6124V27.002C27.9742 27.5817 27.8293 28.113 27.5395 28.596C27.2497 29.079 26.8633 29.4655 26.3803 29.7553C25.8972 30.0451 25.3659 30.19 24.7863 30.19C24.2066 30.19 23.6753 30.0451 23.1923 29.7553C22.7092 29.4655 22.3228 29.079 22.033 28.596C21.7432 28.113 21.5983 27.5817 21.5983 27.002V4.38897ZM52.9725 4.45787C53.7455 5.19926 54.4212 6.04821 54.9996 7.00473C56.2555 9.08175 56.8834 11.6176 56.8834 14.6124V27.002C56.8834 27.5817 57.0283 28.113 57.3181 28.596C57.6079 29.079 57.9943 29.4655 58.4774 29.7553C59.0087 30.0451 59.5642 30.19 60.1438 30.19C60.7234 30.19 61.2548 30.0451 61.7378 29.7553C62.2208 29.4655 62.6073 29.079 62.8971 28.596C63.1869 28.113 63.3318 27.5817 63.3318 27.002V1.49823L52.9725 1.49824V4.45787ZM54.9459 38.7694C54.2734 38.5605 53.615 38.3091 52.9709 38.015C50.7972 37.0007 49.0342 35.455 47.6817 33.378C46.3293 31.301 45.653 28.6926 45.653 25.553V13.2358C45.653 12.6078 45.5081 12.0524 45.2183 11.5693C44.9285 11.0863 44.5421 10.6999 44.059 10.4101C43.576 10.1203 43.0447 9.97534 42.465 9.97534C41.8854 9.97534 41.3299 10.1203 40.7986 10.4101C40.3156 10.6999 39.9291 11.0863 39.6393 11.5693C39.3495 12.0524 39.2046 12.6078 39.2046 13.2358V25.553C39.2046 28.6354 38.5528 31.2057 37.2492 33.2639C37.2734 33.3021 37.2978 33.3401 37.3225 33.378C38.675 35.455 40.438 37.0007 42.6116 38.015C44.8335 39.0294 47.2245 39.5366 49.7846 39.5366C51.6024 39.5366 53.3229 39.2808 54.9459 38.7694Z" fill="#FFB629"/>
</svg>
